# xmcd
#
# Track frame offsets:
#	150
#	28772
#	41192
#	59732
#	85675
#	111725
#	140780
#	166360
#	192585
#
# Disc length: 2890 seconds
#
# Revision: 2
# Processed by: cddbd v1.5.2PL0 Copyright (c) Steve Scherf et al.
# Submitted via: EZCDAudioConverter 1.3.4.1
#
DISCID=8e0b4809
DTITLE=David Byrne - The Visible Man
DYEAR=1998
DGENRE=
TTITLE0=Fuzzy Freaky [DJ Food Remix]
TTITLE1=Fuzzy Freaky [Mark Walk and Ruby Remix]
TTITLE2=Wicked Little Doll [New Kingdom Remix]
TTITLE3=Dance On Vaseline [Thievery Corp. Remix]
TTITLE4=You Don't Know Me [B-Boy 3000 Remix]
TTITLE5=You Don't Know Me [Lloop Remix]
TTITLE6=Miss America [Cecco Music Remix]
TTITLE7=Miss America [Mark Saunders and DB Remix]
TTITLE8=Amnesia [Rea Mochiach Remix]
EXTD=
EXTT0=
EXTT1=
EXTT2=
EXTT3=
EXTT4=
EXTT5=
EXTT6=
EXTT7=
EXTT8=
PLAYORDER=
